<svg xmlns="http://www.w3.org/2000/svg" viewBox="0 0 1200 630" role="img" aria-label="Xenomorph">
  <title>Xenomorph</title>
  <defs>
    <linearGradient id="bg" x1="0" y1="0" x2="1" y2="1">
      <stop offset="0" stop-color="#0a0a0b" />
      <stop offset="1" stop-color="#111114" />
    </linearGradient>
  </defs>
  <rect width="1200" height="630" fill="url(#bg)" />

  <g transform="translate(208 315)">
    <g transform="translate(-128 -128) scale(1)" opacity="1">
      <path
        d="M128 18 L223.26 73 L223.26 183 L128 248 L32.74 183 L32.74 73 Z"
        fill="none"
        stroke="#a3e635"
        stroke-width="7"
        stroke-linejoin="round"
        stroke-linecap="round"
        opacity="0.45"
      />
      <path
        fill="#a3e635"
        fill-rule="evenodd"
        d="M128 64 C88 70 78 84 74 100 C56 108 48 134 60 152 C72 142 78 130 90 122 C96 148 102 166 115 175 C121 184 124 192 128 196 C132 192 135 184 141 175 C154 166 160 148 166 122 C178 130 184 142 196 152 C208 134 200 108 182 100 C178 84 168 70 128 64 Z M 99 124 C 109 121 121 130 121 135 C 113 138 95 131 99 124 Z M 157 124 C 147 121 135 130 135 135 C 143 138 161 131 157 124 Z"
      />
    </g>
  </g>

  <g font-family="ui-monospace, SFMono-Regular, Menlo, Consolas, monospace" text-rendering="geometricPrecision">
    <text x="440" y="270" fill="#f4f4f5" font-size="92" font-weight="700" letter-spacing="6">XENOMORPH</text>
    <text x="446" y="334" fill="#a3e635" font-size="26" font-weight="500" letter-spacing="4">REMOTE SCREENING PLATFORM</text>
    <line x1="446" y1="356" x2="678" y2="356" stroke="#a3e635" stroke-width="2" opacity="0.6" />
    <text x="448" y="396" fill="#a1a1aa" font-size="20" letter-spacing="2">AGENT &#xb7; GATEWAY &#xb7; SHARED EVENT SCHEMA</text>
  </g>
</svg>